<svg id="visual" viewBox="0 0 900 600" width="900" height="600" xmlns="http://www.w3.org/2000/svg" xmlns:xlink="http://www.w3.org/1999/xlink" version="1.1"><rect x="0" y="0" width="900" height="600" fill="#5472e3"></rect><path d="M0 398L129 357L257 352L386 409L514 430L643 364L771 369L900 376L900 601L771 601L643 601L514 601L386 601L257 601L129 601L0 601Z" fill="#6d1c14"></path><path d="M0 473L129 423L257 452L386 471L514 406L643 419L771 442L900 418L900 601L771 601L643 601L514 601L386 601L257 601L129 601L0 601Z" fill="#6e440a"></path><path d="M0 459L129 443L257 476L386 454L514 508L643 483L771 446L900 467L900 601L771 601L643 601L514 601L386 601L257 601L129 601L0 601Z" fill="#646622"></path><path d="M0 522L129 541L257 542L386 535L514 494L643 542L771 487L900 524L900 601L771 601L643 601L514 601L386 601L257 601L129 601L0 601Z" fill="#538451"></path><path d="M0 545L129 540L257 561L386 574L514 548L643 554L771 535L900 553L900 601L771 601L643 601L514 601L386 601L257 601L129 601L0 601Z" fill="#3e9f8a"></path></svg>